<svg xmlns="http://www.w3.org/2000/svg" xml:space="preserve" width="64" height="64" viewBox="5.5 -3.5 64 64"><circle cx="37.47" cy="28.736" r="29.471" fill="#fff"/><path d="M37.442-3.5q13.485 0 22.743 9.256Q69.499 15.014 69.5 28.5t-9.145 22.458q-9.713 9.543-22.913 9.542-13.029 0-22.513-9.485Q5.501 41.586 5.5 28.5q0-13.143 9.429-22.743Q24.185-3.5 37.442-3.5M12.7 19.872q-1.428 3.943-1.429 8.629 0 10.63 7.77 18.4 7.829 7.716 18.514 7.715 10.8.001 18.63-7.829 2.8-2.685 4.398-5.602l-12.056-5.371q-.63 3.03-3.057 4.942-2.432 1.915-5.744 2.2v4.915h-3.714v-4.915q-5.315-.054-9.714-3.827l4.4-4.457q3.142 2.913 7.143 2.913 1.657.001 2.83-.743 1.171-.74 1.172-2.457 0-1.201-.858-1.943L37.9 31.127l-3.771-1.715-5.086-2.229zM37.557 2.214q-10.914 0-18.457 7.714a30.6 30.6 0 0 0-3.543 4.287L27.786 19.7q.799-2.514 3.029-4.028 2.226-1.513 5.2-1.686V9.071h3.715v4.915q4.4.23 8 2.971l-4.172 4.286q-2.687-1.885-5.486-1.885-1.486 0-2.656.571-1.172.572-1.172 1.943 0 .4.285.8l4.057 1.83 2.8 1.257 5.144 2.285 16.397 7.314a29.5 29.5 0 0 0 .801-6.857q0-11.029-7.656-18.573-7.602-7.714-18.515-7.714"/></svg>